<svg width="55" height="16" viewBox="0 0 55 16" fill="none" xmlns="http://www.w3.org/2000/svg">
<path d="M2.91602 9.7168V15H0.445312V0.78125H5.88477C7.47331 0.78125 8.73307 1.19466 9.66406 2.02148C10.6016 2.84831 11.0703 3.94206 11.0703 5.30273C11.0703 6.69596 10.6113 7.77995 9.69336 8.55469C8.7819 9.32943 7.5026 9.7168 5.85547 9.7168H2.91602ZM2.91602 7.73438H5.88477C6.76367 7.73438 7.43424 7.5293 7.89648 7.11914C8.35872 6.70247 8.58984 6.10352 8.58984 5.32227C8.58984 4.55404 8.35547 3.94206 7.88672 3.48633C7.41797 3.02409 6.77344 2.78646 5.95312 2.77344H2.91602V7.73438ZM15.5332 15H13.1602V0H15.5332V15ZM24.4395 15C24.3353 14.7982 24.2441 14.4694 24.166 14.0137C23.4108 14.8014 22.4863 15.1953 21.3926 15.1953C20.3314 15.1953 19.4655 14.8926 18.7949 14.2871C18.1243 13.6816 17.7891 12.9329 17.7891 12.041C17.7891 10.9147 18.2057 10.0521 19.0391 9.45312C19.8789 8.84766 21.0768 8.54492 22.6328 8.54492H24.0879V7.85156C24.0879 7.30469 23.9349 6.86849 23.6289 6.54297C23.3229 6.21094 22.8574 6.04492 22.2324 6.04492C21.6921 6.04492 21.2493 6.18164 20.9043 6.45508C20.5592 6.72201 20.3867 7.0638 20.3867 7.48047H18.0137C18.0137 6.90104 18.2057 6.36068 18.5898 5.85938C18.974 5.35156 19.4948 4.95443 20.1523 4.66797C20.8164 4.38151 21.5553 4.23828 22.3691 4.23828C23.6061 4.23828 24.5924 4.55078 25.3281 5.17578C26.0638 5.79427 26.4414 6.66667 26.4609 7.79297V12.5586C26.4609 13.5091 26.5944 14.2676 26.8613 14.834V15H24.4395ZM21.832 13.291C22.3008 13.291 22.7402 13.1771 23.1504 12.9492C23.5671 12.7214 23.8796 12.4154 24.0879 12.0312V10.0391H22.8086C21.9297 10.0391 21.2689 10.1921 20.8262 10.498C20.3835 10.804 20.1621 11.237 20.1621 11.7969C20.1621 12.2526 20.3118 12.6172 20.6113 12.8906C20.9173 13.1576 21.3242 13.291 21.832 13.291ZM31.1484 4.43359L31.2168 5.6543C31.998 4.71029 33.0234 4.23828 34.293 4.23828C36.4935 4.23828 37.6133 5.49805 37.6523 8.01758V15H35.2793V8.1543C35.2793 7.48372 35.1328 6.98893 34.8398 6.66992C34.5534 6.3444 34.0814 6.18164 33.4238 6.18164C32.4668 6.18164 31.7539 6.61458 31.2852 7.48047V15H28.9121V4.43359H31.1484ZM43.0527 1.86523V4.43359H44.918V6.19141H43.0527V12.0898C43.0527 12.4935 43.1309 12.7865 43.2871 12.9688C43.4499 13.1445 43.7363 13.2324 44.1465 13.2324C44.4199 13.2324 44.6966 13.1999 44.9766 13.1348V14.9707C44.4362 15.1204 43.9154 15.1953 43.4141 15.1953C41.5911 15.1953 40.6797 14.1895 40.6797 12.1777V6.19141H38.9414V4.43359H40.6797V1.86523H43.0527ZM52.6621 12.1289C52.6621 11.7057 52.4863 11.3835 52.1348 11.1621C51.7897 10.9408 51.2135 10.7454 50.4062 10.5762C49.599 10.4069 48.9251 10.1921 48.3848 9.93164C47.1999 9.35872 46.6074 8.52865 46.6074 7.44141C46.6074 6.52995 46.9915 5.76823 47.7598 5.15625C48.528 4.54427 49.5046 4.23828 50.6895 4.23828C51.9525 4.23828 52.9714 4.55078 53.7461 5.17578C54.5273 5.80078 54.918 6.61133 54.918 7.60742H52.5449C52.5449 7.15169 52.3757 6.77409 52.0371 6.47461C51.6986 6.16862 51.2493 6.01562 50.6895 6.01562C50.1686 6.01562 49.7422 6.13607 49.4102 6.37695C49.0846 6.61784 48.9219 6.9401 48.9219 7.34375C48.9219 7.70833 49.0749 7.99154 49.3809 8.19336C49.6868 8.39518 50.3053 8.60026 51.2363 8.80859C52.1673 9.01042 52.8965 9.25456 53.4238 9.54102C53.9577 9.82096 54.3516 10.1595 54.6055 10.5566C54.8659 10.9538 54.9961 11.4355 54.9961 12.002C54.9961 12.9525 54.6022 13.724 53.8145 14.3164C53.0267 14.9023 51.9948 15.1953 50.7188 15.1953C49.8529 15.1953 49.0814 15.0391 48.4043 14.7266C47.7272 14.4141 47.1999 13.9844 46.8223 13.4375C46.4447 12.8906 46.2559 12.3014 46.2559 11.6699H48.5605C48.5931 12.2298 48.8047 12.6628 49.1953 12.9688C49.5859 13.2682 50.1035 13.418 50.748 13.418C51.373 13.418 51.8483 13.3008 52.1738 13.0664C52.4993 12.8255 52.6621 12.513 52.6621 12.1289Z" fill="white"/>
</svg>
